#Comment line ignore any data following # character 
#Hierarchical Translation and Rotation (.htr) file 
[Header]	
#Header keywords are followed by a single value 
FileType HTR		#Single word string
DataType HTRS		#Translation followed by rotation and scale data
FileVersion 1		#integer
NumSegments 84		#integer
NumFrames 2		#integer
DataFrameRate 30		#integer, data frame rate in this file
EulerRotationOrder ZYX
CalibrationUnits mm
RotationUnits Degrees
GlobalAxisofGravity Y
BoneLengthAxis Y
ScaleFactor 1.00
[SegmentNames&Hierarchy]
#CHILD	PARENT
MASTER GLOBAL
root MASTER
chest root
L_mid_tent01 root
R_mid_tent01 root
spine01 root
Bip01_Neck chest
L_humerus chest
R_humerus chest
weapon_bone chest
Bip01_Head Bip01_Neck
eye_left_bone Bip01_Head
eye_right_bone Bip01_Head
L_forearm L_humerus
L_front_hand L_forearm
L_weapon_bone L_forearm
L_front_hand01_01 L_front_hand
L_front_hand02_01 L_front_hand
L_front_hand03_01 L_front_hand
L_front_hand01_02 L_front_hand01_01
L_front_hand02_02 L_front_hand02_01
L_front_hand03_02 L_front_hand03_01
R_forearm R_humerus
R_front_hand R_forearm
R_weapon_bone R_forearm
R_front_hand01_01 R_front_hand
R_front_hand02_01 R_front_hand
R_front_hand03_01 R_front_hand
R_front_hand01_02 R_front_hand01_01
R_front_hand02_02 R_front_hand02_01
R_front_hand03_02 R_front_hand03_01
null_rope01_connect L_mid_tent01
Rope1_Seg01 null_rope01_connect
Rope1_Seg02 Rope1_Seg01
Rope1_Seg03 Rope1_Seg02
Rope1_Seg04 Rope1_Seg03
Rope1_Seg05 Rope1_Seg04
Rope1_Seg06 Rope1_Seg05
Rope1_Seg07 Rope1_Seg06
Rope1_Seg09 Rope1_Seg07
L_mid_hand01 Rope1_Seg09
L_mid_hand02 Rope1_Seg09
L_mid_hand03 Rope1_Seg09
null_rope02_connect R_mid_tent01
Rope2_Seg01 null_rope02_connect
Rope2_Seg02 Rope2_Seg01
Rope2_Seg03 Rope2_Seg02
Rope2_Seg04 Rope2_Seg03
Rope2_Seg05 Rope2_Seg04
Rope2_Seg06 Rope2_Seg05
Rope2_Seg07 Rope2_Seg06
Rope2_Seg09 Rope2_Seg07
R_mid_hand01 Rope2_Seg09
R_mid_hand02 Rope2_Seg09
R_mid_hand03 Rope2_Seg09
spine02 spine01
spine03 spine02
pelvis spine03
null_rope03_connect pelvis
null_rope04_connect pelvis
Rope3_Seg01 null_rope03_connect
Rope3_Seg02 Rope3_Seg01
Rope3_Seg03 Rope3_Seg02
Rope3_Seg04 Rope3_Seg03
Rope3_Seg05 Rope3_Seg04
Rope3_Seg06 Rope3_Seg05
Rope3_Seg07 Rope3_Seg06
Rope3_Seg08 Rope3_Seg07
Rope3_Seg09 Rope3_Seg08
R_rear_hand01 Rope3_Seg09
R_rear_hand02 Rope3_Seg09
R_rear_hand03 Rope3_Seg09
Rope4_Seg01 null_rope04_connect
Rope4_Seg02 Rope4_Seg01
Rope4_Seg03 Rope4_Seg02
Rope4_Seg04 Rope4_Seg03
Rope4_Seg05 Rope4_Seg04
Rope4_Seg06 Rope4_Seg05
Rope4_Seg07 Rope4_Seg06
Rope4_Seg08 Rope4_Seg07
Rope4_Seg09 Rope4_Seg08
L_rear_hand01 Rope4_Seg09
L_rear_hand02 Rope4_Seg09
L_rear_hand03 Rope4_Seg09
[BasePosition]
#SegmentName Tx, Ty, Tz, Rx, Ry, Rz, BoneLength
MASTER 0.000000 0.000000 0.000000 -90.000000 0.000000 0.000000 10.000000 
root 0.000000 0.000000 0.000000 0.000000 0.000000 0.000000 10.000000 
chest 0.000000 0.000000 0.000000 0.000000 0.000000 0.000000 10.000000 
L_mid_tent01 0.000000 0.000000 0.000000 0.000000 0.000000 0.000000 10.000000 
R_mid_tent01 0.000000 0.000000 0.000000 0.000000 0.000000 0.000000 10.000000 
spine01 0.000000 0.000000 0.000000 0.000000 0.000000 0.000000 10.000000 
Bip01_Neck 0.000000 0.000000 0.000000 0.000000 0.000000 0.000000 10.000000 
L_humerus 0.000000 0.000000 0.000000 0.000000 0.000000 0.000000 10.000000 
R_humerus 0.000000 0.000000 0.000000 0.000000 0.000000 0.000000 10.000000 
weapon_bone 0.000000 0.000000 0.000000 0.000000 0.000000 0.000000 10.000000 
Bip01_Head 0.000000 0.000000 0.000000 0.000000 0.000000 0.000000 10.000000 
eye_left_bone 0.000000 0.000000 0.000000 0.000000 0.000000 0.000000 10.000000 
eye_right_bone 0.000000 0.000000 0.000000 0.000000 0.000000 0.000000 10.000000 
L_forearm 0.000000 0.000000 0.000000 0.000000 0.000000 0.000000 10.000000 
L_front_hand 0.000000 0.000000 0.000000 0.000000 0.000000 0.000000 10.000000 
L_weapon_bone 0.000000 0.000000 0.000000 0.000000 0.000000 0.000000 10.000000 
L_front_hand01_01 0.000000 0.000000 0.000000 0.000000 0.000000 0.000000 10.000000 
L_front_hand02_01 0.000000 0.000000 0.000000 0.000000 0.000000 0.000000 10.000000 
L_front_hand03_01 0.000000 0.000000 0.000000 0.000000 0.000000 0.000000 10.000000 
L_front_hand01_02 0.000000 0.000000 0.000000 0.000000 0.000000 0.000000 10.000000 
L_front_hand02_02 0.000000 0.000000 0.000000 0.000000 0.000000 0.000000 10.000000 
L_front_hand03_02 0.000000 0.000000 0.000000 0.000000 0.000000 0.000000 10.000000 
R_forearm 0.000000 0.000000 0.000000 0.000000 0.000000 0.000000 10.000000 
R_front_hand 0.000000 0.000000 0.000000 0.000000 0.000000 0.000000 10.000000 
R_weapon_bone 0.000000 0.000000 0.000000 0.000000 0.000000 0.000000 10.000000 
R_front_hand01_01 0.000000 0.000000 0.000000 0.000000 0.000000 0.000000 10.000000 
R_front_hand02_01 0.000000 0.000000 0.000000 0.000000 0.000000 0.000000 10.000000 
R_front_hand03_01 0.000000 0.000000 0.000000 0.000000 0.000000 0.000000 10.000000 
R_front_hand01_02 0.000000 0.000000 0.000000 0.000000 0.000000 0.000000 10.000000 
R_front_hand02_02 0.000000 0.000000 0.000000 0.000000 0.000000 0.000000 10.000000 
R_front_hand03_02 0.000000 0.000000 0.000000 0.000000 0.000000 0.000000 10.000000 
null_rope01_connect 0.000000 0.000000 0.000000 0.000000 0.000000 0.000000 10.000000 
Rope1_Seg01 0.000000 0.000000 0.000000 0.000000 0.000000 0.000000 10.000000 
Rope1_Seg02 0.000000 0.000000 0.000000 0.000000 0.000000 0.000000 10.000000 
Rope1_Seg03 0.000000 0.000000 0.000000 0.000000 0.000000 0.000000 10.000000 
Rope1_Seg04 0.000000 0.000000 0.000000 0.000000 0.000000 0.000000 10.000000 
Rope1_Seg05 0.000000 0.000000 0.000000 0.000000 0.000000 0.000000 10.000000 
Rope1_Seg06 0.000000 0.000000 0.000000 0.000000 0.000000 0.000000 10.000000 
Rope1_Seg07 0.000000 0.000000 0.000000 0.000000 0.000000 0.000000 10.000000 
Rope1_Seg09 0.000000 0.000000 0.000000 0.000000 0.000000 0.000000 10.000000 
L_mid_hand01 0.000000 0.000000 0.000000 0.000000 0.000000 0.000000 10.000000 
L_mid_hand02 0.000000 0.000000 0.000000 0.000000 0.000000 0.000000 10.000000 
L_mid_hand03 0.000000 0.000000 0.000000 0.000000 0.000000 0.000000 10.000000 
null_rope02_connect 0.000000 0.000000 0.000000 0.000000 0.000000 0.000000 10.000000 
Rope2_Seg01 0.000000 0.000000 0.000000 0.000000 0.000000 0.000000 10.000000 
Rope2_Seg02 0.000000 0.000000 0.000000 0.000000 0.000000 0.000000 10.000000 
Rope2_Seg03 0.000000 0.000000 0.000000 0.000000 0.000000 0.000000 10.000000 
Rope2_Seg04 0.000000 0.000000 0.000000 0.000000 0.000000 0.000000 10.000000 
Rope2_Seg05 0.000000 0.000000 0.000000 0.000000 0.000000 0.000000 10.000000 
Rope2_Seg06 0.000000 0.000000 0.000000 0.000000 0.000000 0.000000 10.000000 
Rope2_Seg07 0.000000 0.000000 0.000000 0.000000 0.000000 0.000000 10.000000 
Rope2_Seg09 0.000000 0.000000 0.000000 0.000000 0.000000 0.000000 10.000000 
R_mid_hand01 0.000000 0.000000 0.000000 0.000000 0.000000 0.000000 10.000000 
R_mid_hand02 0.000000 0.000000 0.000000 0.000000 0.000000 0.000000 10.000000 
R_mid_hand03 0.000000 0.000000 0.000000 0.000000 0.000000 0.000000 10.000000 
spine02 0.000000 0.000000 0.000000 0.000000 0.000000 0.000000 10.000000 
spine03 0.000000 0.000000 0.000000 0.000000 0.000000 0.000000 10.000000 
pelvis 0.000000 0.000000 0.000000 0.000000 0.000000 0.000000 10.000000 
null_rope03_connect 0.000000 0.000000 0.000000 0.000000 0.000000 0.000000 10.000000 
null_rope04_connect 0.000000 0.000000 0.000000 0.000000 0.000000 0.000000 10.000000 
Rope3_Seg01 0.000000 0.000000 0.000000 0.000000 0.000000 0.000000 10.000000 
Rope3_Seg02 0.000000 0.000000 0.000000 0.000000 0.000000 0.000000 10.000000 
Rope3_Seg03 0.000000 0.000000 0.000000 0.000000 0.000000 0.000000 10.000000 
Rope3_Seg04 0.000000 0.000000 0.000000 0.000000 0.000000 0.000000 10.000000 
Rope3_Seg05 0.000000 0.000000 0.000000 0.000000 0.000000 0.000000 10.000000 
Rope3_Seg06 0.000000 0.000000 0.000000 0.000000 0.000000 0.000000 10.000000 
Rope3_Seg07 0.000000 0.000000 0.000000 0.000000 0.000000 0.000000 10.000000 
Rope3_Seg08 0.000000 0.000000 0.000000 0.000000 0.000000 0.000000 10.000000 
Rope3_Seg09 0.000000 0.000000 0.000000 0.000000 0.000000 0.000000 10.000000 
R_rear_hand01 0.000000 0.000000 0.000000 0.000000 0.000000 0.000000 10.000000 
R_rear_hand02 0.000000 0.000000 0.000000 0.000000 0.000000 0.000000 10.000000 
R_rear_hand03 0.000000 0.000000 0.000000 0.000000 0.000000 0.000000 10.000000 
Rope4_Seg01 0.000000 0.000000 0.000000 0.000000 0.000000 0.000000 10.000000 
Rope4_Seg02 0.000000 0.000000 0.000000 0.000000 0.000000 0.000000 10.000000 
Rope4_Seg03 0.000000 0.000000 0.000000 0.000000 0.000000 0.000000 10.000000 
Rope4_Seg04 0.000000 0.000000 0.000000 0.000000 0.000000 0.000000 10.000000 
Rope4_Seg05 0.000000 0.000000 0.000000 0.000000 0.000000 0.000000 10.000000 
Rope4_Seg06 0.000000 0.000000 0.000000 0.000000 0.000000 0.000000 10.000000 
Rope4_Seg07 0.000000 0.000000 0.000000 0.000000 0.000000 0.000000 10.000000 
Rope4_Seg08 0.000000 0.000000 0.000000 0.000000 0.000000 0.000000 10.000000 
Rope4_Seg09 0.000000 0.000000 0.000000 0.000000 0.000000 0.000000 10.000000 
L_rear_hand01 0.000000 0.000000 0.000000 0.000000 0.000000 0.000000 10.000000 
L_rear_hand02 0.000000 0.000000 0.000000 0.000000 0.000000 0.000000 10.000000 
L_rear_hand03 0.000000 0.000000 0.000000 0.000000 0.000000 0.000000 10.000000 
#Beginning of Data. Separated by tabs
#Fr	Tx	Ty	Tz	Rx	Ry	Rz	SF
[MASTER]
26 0.000003 -0.000030 -4669.687500 0.001660 0.001660 0.001660 4669.687012
27 0.000003 -0.000027 -4886.281250 0.001660 0.001660 0.001660 4886.280762
[root]
26 -16.502302 0.904730 1452.643799 -66.537552 -10.740543 -99.821915 1452.737793
27 -16.502304 2.387735 1451.857910 -71.427086 -13.948757 -97.764542 1451.953613
[chest]
26 -84.512650 -34.090519 0.000000 0.286858 -1.235144 168.342194 91.129311
27 -84.512650 -34.090519 0.000000 -0.739080 -1.781594 176.398422 91.129311
[L_mid_tent01]
26 27.299234 22.178736 -249.918625 4.507673 15.639031 82.209290 252.381592
27 27.299231 22.178753 -249.918625 4.339792 22.516127 81.965675 252.381592
[R_mid_tent01]
26 23.228794 24.509907 226.238495 164.529373 -10.235929 77.181625 228.744751
27 23.228794 24.509907 226.238495 164.263031 -21.404116 79.708298 228.744751
[spine01]
26 -0.361383 -0.195265 0.000000 0.002005 0.001220 27.358238 0.410763
27 -0.361383 -0.195265 0.000000 0.001939 0.001323 21.356878 0.410763
[Bip01_Neck]
26 165.484543 71.581718 0.000119 176.643677 -1.657967 43.431911 180.302734
27 165.484543 71.581718 0.000119 176.643677 -1.657967 43.431911 180.302734
[L_humerus]
26 -13.983130 -135.272980 -120.471481 164.591614 22.197092 -67.915314 181.680161
27 -13.983130 -135.272980 -120.471481 166.450638 26.246870 -72.031227 181.680161
[R_humerus]
26 -13.983309 -135.273102 125.287651 -177.077301 -15.557546 -85.848686 184.909012
27 -13.983309 -135.273102 125.287651 -176.854599 -21.636978 -86.231544 184.909012
[weapon_bone]
26 235.964890 -300.705902 0.000000 0.000000 -89.951546 -128.212341 382.234833
27 235.964890 -300.705902 0.000000 0.000000 -89.951546 -128.212341 382.234833
[Bip01_Head]
26 213.432755 185.747375 11.366882 4.987259 10.061257 -43.762226 283.169281
27 213.436569 185.736679 11.503576 4.975444 8.177673 -43.795307 283.170654
[eye_left_bone]
26 -24.626970 125.451866 -64.772606 0.000000 -90.000000 -99.840431 143.318359
27 -24.626970 125.451866 -64.772606 0.000000 -90.000000 -99.840431 143.318359
[eye_right_bone]
26 -24.626970 125.451866 64.327362 0.000000 -89.965736 80.156380 143.117676
27 -24.626970 125.451866 64.327362 0.000000 -89.965736 80.156380 143.117676
[L_forearm]
26 322.776093 0.000000 -0.000119 0.000111 -0.002345 -95.420288 322.776093
27 322.776093 0.000000 -0.000119 0.000112 -0.002345 -95.487122 322.776093
[L_front_hand]
26 241.149185 -0.042021 -3.300071 -178.660294 -1.832194 -27.600683 241.171753
27 241.149185 -0.042021 -3.300071 -178.666641 -1.834499 -27.503826 241.171753
[L_weapon_bone]
26 156.183838 0.000000 0.000000 0.000014 0.000007 0.000001 156.183838
27 156.183838 0.000000 0.000000 0.000014 0.000007 0.000001 156.183838
[L_front_hand01_01]
26 86.095154 20.947098 -0.655860 -0.366594 -0.477154 75.385574 88.609184
27 86.095154 20.947098 -0.655860 -0.366594 -0.477154 75.385574 88.609184
[L_front_hand02_01]
26 86.935165 -11.437475 24.513514 154.399796 -59.883835 -61.369587 91.046425
27 86.935165 -11.437475 24.513514 154.399796 -59.883835 -61.369587 91.046425
[L_front_hand03_01]
26 86.637497 -14.123976 -20.424902 -153.913849 58.118122 -62.702866 90.126129
27 86.637497 -14.123976 -20.424902 -153.913849 58.118122 -62.702866 90.126129
[L_front_hand01_02]
26 71.020905 -0.000179 0.000030 0.000334 -0.002323 -106.379684 71.020905
27 71.020905 -0.000179 0.000030 0.000334 -0.002323 -106.379684 71.020905
[L_front_hand02_02]
26 71.020927 -0.000119 0.000060 0.000334 -0.002323 -106.379684 71.020927
27 71.020927 -0.000119 0.000060 0.000334 -0.002323 -106.379684 71.020927
[L_front_hand03_02]
26 71.020905 -0.000060 0.000060 0.000334 -0.002323 -106.379684 71.020905
27 71.020905 -0.000060 0.000060 0.000334 -0.002323 -106.379684 71.020905
[R_forearm]
26 322.776428 -0.000060 0.000030 0.213162 0.008458 -93.927010 322.776428
27 322.776428 -0.000060 0.000030 0.213156 0.008609 -94.008171 322.776428
[R_front_hand]
26 238.847015 -0.006795 2.210259 -2.593845 -10.655366 -26.525486 238.857239
27 238.847015 -0.006795 2.210259 -2.615299 -10.650253 -26.411255 238.857239
[R_weapon_bone]
26 155.664093 0.002503 -0.000030 0.003487 0.001180 -90.988930 155.664078
27 155.664093 0.002503 -0.000030 0.003487 0.001180 -90.988930 155.664078
[R_front_hand01_01]
26 87.624611 14.231146 22.918642 -154.633499 -59.950619 61.746044 91.683487
27 87.624611 14.231146 22.918642 -154.633484 -59.950619 61.746037 91.683487
[R_front_hand02_01]
26 89.356956 14.367283 -19.491137 154.602661 58.302849 63.744389 92.579636
27 89.356956 14.367283 -19.491137 154.602661 58.302849 63.744389 92.579636
[R_front_hand03_01]
26 87.286232 -22.307278 -0.143439 0.162155 -0.423168 -75.767921 90.091743
27 87.286232 -22.307278 -0.143439 0.162155 -0.423168 -75.767921 90.091743
[R_front_hand01_02]
26 71.020905 0.000060 0.000119 0.002323 -0.000334 106.381714 71.020905
27 71.020905 0.000060 0.000119 0.002323 -0.000334 106.381714 71.020905
[R_front_hand02_02]
26 71.020844 -0.000030 -0.000119 0.002323 -0.000334 106.381714 71.020836
27 71.020844 -0.000030 -0.000119 0.002323 -0.000334 106.381714 71.020836
[R_front_hand03_02]
26 71.020905 0.000000 0.000030 0.002323 -0.000334 106.381714 71.020905
27 71.020905 0.000000 0.000030 0.002323 -0.000334 106.381714 71.020905
[null_rope01_connect]
26 328.732483 0.000000 -0.000238 -56.494022 -72.468704 75.123390 328.732483
27 328.732483 0.000000 -0.000238 -94.713860 -74.266502 116.260437 328.732483
[Rope1_Seg01]
26 0.000049 -0.000045 0.000196 -17.834913 36.782093 157.158173 0.000207
27 0.000051 -0.000045 0.000203 -16.114471 20.984762 157.981140 0.000214
[Rope1_Seg02]
26 139.999863 -0.000179 0.000000 -0.359613 6.837965 -8.609104 139.999863
27 139.999863 -0.000179 0.000000 -0.110566 4.262094 -7.004829 139.999863
[Rope1_Seg03]
26 139.999924 0.000060 -0.000060 -0.516145 8.099881 -9.679880 139.999924
27 139.999924 0.000060 -0.000060 -0.011156 4.276396 -6.178232 139.999924
[Rope1_Seg04]
26 139.999924 -0.000060 -0.000119 -0.889935 7.481640 -7.774502 139.999924
27 139.999924 -0.000060 -0.000119 -0.288324 3.773752 -3.541521 139.999924
[Rope1_Seg05]
26 139.999832 0.000119 -0.000060 5.815033 10.302159 -18.197224 139.999832
27 139.999832 0.000119 -0.000060 2.759772 4.271985 -13.232573 139.999832
[Rope1_Seg06]
26 139.999954 0.000119 -0.000060 94.456070 9.889488 -28.678547 139.999954
27 139.999954 0.000119 -0.000060 12.646492 3.907522 -21.988129 139.999954
[Rope1_Seg07]
26 139.999985 0.000060 0.000000 38.316441 -15.916516 -4.207601 139.999985
27 139.999985 0.000060 0.000000 16.863249 -0.305904 -13.826123 139.999985
[Rope1_Seg09]
26 121.602913 0.000119 -0.000089 -89.793175 -1.359789 0.847147 121.602913
27 121.602913 0.000119 -0.000089 -89.793175 -1.359789 0.847147 121.602913
[L_mid_hand01]
26 103.859421 1.038730 8.195221 130.544373 -67.584534 -38.866943 104.187431
27 103.859421 1.038730 8.195221 130.544373 -67.584534 -38.866943 104.187431
[L_mid_hand02]
26 105.572853 -4.139662 -10.864139 -168.923172 43.409309 -73.498886 106.211075
27 105.572853 -4.139662 -10.864139 -168.923172 43.409309 -73.498886 106.211075
[L_mid_hand03]
26 104.641464 17.579376 -3.913581 -6.012627 17.808174 74.893669 106.179977
27 104.641464 17.579376 -3.913581 -6.012626 17.808172 74.893661 106.179977
[null_rope02_connect]
26 328.732849 0.000179 -0.000119 -150.338989 61.653606 -1.160098 328.732849
27 328.732849 0.000179 -0.000119 -143.344543 54.053879 4.030896 328.732849
[Rope2_Seg01]
26 0.000046 0.000108 0.000000 96.551926 -8.711728 4.816258 0.000118
27 0.000051 0.000109 0.000000 91.659363 -3.667716 2.710387 0.000120
[Rope2_Seg02]
26 139.999741 -0.000060 -0.000119 -6.161410 -4.264702 -5.277232 139.999756
27 139.999741 -0.000060 -0.000119 -5.776488 -4.429850 -4.612900 139.999756
[Rope2_Seg03]
26 140.000107 0.000030 0.000000 -9.457191 -5.347443 -8.392483 140.000107
27 140.000107 0.000030 0.000000 -9.572768 -5.995615 -7.727855 140.000107
[Rope2_Seg04]
26 139.999802 0.000000 -0.000060 -12.798022 -4.155830 -13.891852 139.999802
27 139.999802 0.000000 -0.000060 -14.755283 -6.080637 -14.033463 139.999802
[Rope2_Seg05]
26 139.999985 -0.000060 0.000119 -12.022034 -1.556866 -17.203547 139.999985
27 139.999985 -0.000060 0.000119 -15.083306 -2.663280 -19.632641 139.999985
[Rope2_Seg06]
26 139.999893 -0.000030 -0.000119 -13.106071 -7.070249 -23.598995 139.999893
27 139.999893 -0.000030 -0.000119 -14.621411 -5.527506 -26.536005 139.999893
[Rope2_Seg07]
26 139.999893 0.000060 -0.000060 -9.385351 -2.888832 -24.738138 139.999893
27 139.999893 0.000060 -0.000060 -8.491803 -0.421120 -24.793776 139.999893
[Rope2_Seg09]
26 121.338966 0.000089 -0.000060 33.793236 -1.359788 -0.847141 121.338966
27 121.338966 0.000089 -0.000060 33.793236 -1.359788 -0.847141 121.338966
[R_mid_hand01]
26 104.680779 11.144459 -10.335981 -16.212063 45.237247 70.462852 105.778534
27 104.680779 11.144459 -10.335981 -16.212063 45.237247 70.462852 105.778534
[R_mid_hand02]
26 104.070427 2.443552 8.231699 49.067368 -67.749771 39.286453 104.424065
27 104.070427 2.443552 8.231699 49.067368 -67.749771 39.286453 104.424065
[R_mid_hand03]
26 106.028137 -11.221827 -5.996406 -177.101105 15.551026 -76.585571 106.788818
27 106.028137 -11.221827 -5.996406 -177.101105 15.551026 -76.585571 106.788818
[spine02]
26 129.756927 0.001550 0.000119 -1.083299 -3.922151 7.630827 129.756927
27 129.756927 0.001550 0.000119 -1.064078 -3.920324 7.367290 129.756927
[spine03]
26 78.614014 0.082636 -4.898972 1.002479 4.174065 3.683869 78.766556
27 78.614021 0.082575 -4.898974 1.012697 4.160160 3.840084 78.766556
[pelvis]
26 169.435242 0.051022 0.000000 0.025224 -0.179686 -11.809807 169.435257
27 169.435242 0.051022 0.000000 0.025189 -0.184687 -11.471751 169.435257
[null_rope03_connect]
26 -1.257226 -2.466202 137.391083 -12.177534 -66.789803 88.134430 137.418976
27 -1.257226 -2.466202 137.391083 -9.822047 -72.071175 93.978783 137.418976
[null_rope04_connect]
26 -1.259640 -2.480268 -137.844437 -12.177534 -66.789803 88.134430 137.872513
27 -1.259640 -2.480268 -137.844437 -9.822047 -72.071175 93.978783 137.872513
[Rope3_Seg01]
26 -0.000029 -0.000014 0.000196 40.532352 -49.226463 -101.659500 0.000198
27 -0.000029 -0.000013 0.000203 35.172836 -55.859653 -91.453476 0.000206
[Rope3_Seg02]
26 139.999924 -0.000119 0.000060 3.366547 5.186031 22.509430 139.999924
27 139.999924 -0.000119 0.000060 2.688994 7.777498 23.972126 139.999924
[Rope3_Seg03]
26 139.999924 -0.000119 0.000119 1.836627 11.385594 32.219940 139.999924
27 139.999924 -0.000119 0.000119 0.896936 11.099534 27.521309 139.999924
[Rope3_Seg04]
26 139.999924 0.000119 0.000000 -2.843589 7.612029 20.304428 139.999924
27 139.999924 0.000119 0.000000 -1.335755 7.276619 15.526823 139.999924
[Rope3_Seg05]
26 139.999924 -0.000238 0.000060 -20.486923 -6.787251 15.371695 139.999924
27 139.999924 -0.000238 0.000060 -11.557511 -1.094708 12.089929 139.999924
[Rope3_Seg06]
26 139.999893 -0.000119 -0.000060 -28.837189 -17.752613 12.156006 139.999893
27 139.999893 -0.000119 -0.000060 -33.600967 -9.979432 16.265369 139.999893
[Rope3_Seg07]
26 139.999771 0.000060 -0.000119 -11.793310 -11.796985 3.248721 139.999771
27 139.999771 0.000060 -0.000119 -25.938946 -13.855166 8.181562 139.999771
[Rope3_Seg08]
26 139.999985 -0.000060 0.000000 -4.760836 -6.807723 0.498218 139.999985
27 139.999985 -0.000060 0.000000 -10.266061 -9.231631 1.201363 139.999985
[Rope3_Seg09]
26 90.185997 -0.000179 -0.000060 89.793228 -1.359877 -0.847183 90.185997
27 90.185997 -0.000179 -0.000060 89.793228 -1.359877 -0.847183 90.185997
[R_rear_hand01]
26 103.366196 -6.073594 -10.757982 -177.714203 24.565960 -73.910950 104.101845
27 103.366196 -6.073594 -10.757982 -177.714203 24.565960 -73.910950 104.101845
[R_rear_hand02]
26 100.509819 12.039542 -7.992327 -12.874829 36.868488 72.167213 101.543350
27 100.509819 12.039542 -7.992327 -12.874829 36.868488 72.167213 101.543350
[R_rear_hand03]
26 101.539970 5.215704 5.435467 71.484581 -71.816628 21.513813 101.819031
27 101.539970 5.215704 5.435467 71.484581 -71.816628 21.513813 101.819031
[Rope4_Seg01]
26 0.000000 0.000000 0.000000 -83.754005 -20.463037 -139.194870 0.000000
27 0.000000 0.000000 0.000000 -81.750710 -31.732731 -136.218140 0.000000
[Rope4_Seg02]
26 139.999985 0.000060 0.000119 -6.060790 8.430366 15.266549 139.999985
27 139.999985 0.000060 0.000119 -7.063380 9.044721 22.532267 139.999985
[Rope4_Seg03]
26 139.999924 0.000000 -0.000238 -14.139344 5.423814 17.292860 139.999924
27 139.999924 0.000000 -0.000238 -17.108229 1.609185 22.797829 139.999924
[Rope4_Seg04]
26 139.999985 0.000000 0.000119 -17.679590 0.254417 14.168066 139.999985
27 139.999985 0.000000 0.000119 -18.059175 0.478391 18.449955 139.999985
[Rope4_Seg05]
26 139.999802 -0.000060 -0.000119 -34.559250 2.059663 22.486698 139.999802
27 139.999802 -0.000060 -0.000119 -28.132109 2.464716 22.936646 139.999802
[Rope4_Seg06]
26 139.999924 0.000000 0.000060 -30.835764 -8.346230 17.866024 139.999924
27 139.999924 0.000000 0.000060 -18.260443 -4.867362 11.826280 139.999924
[Rope4_Seg07]
26 139.999802 0.000000 0.000000 -8.968435 -7.648860 4.710063 139.999802
27 139.999802 0.000000 0.000000 -7.734614 -4.462004 4.660009 139.999802
[Rope4_Seg08]
26 139.999924 0.000000 0.000119 -5.202208 -4.484095 1.885133 139.999924
27 139.999924 0.000000 0.000119 -5.316092 -2.835049 2.263020 139.999924
[Rope4_Seg09]
26 90.185791 0.000060 0.000060 -135.617828 2.228885 0.850567 90.185791
27 90.185791 0.000060 0.000060 -135.617828 2.228885 0.850567 90.185791
[L_rear_hand01]
26 101.696655 -8.392275 -7.654577 -12.874829 -36.868488 107.832764 102.329041
27 101.696655 -8.392275 -7.654577 -12.874829 -36.868488 107.832764 102.329041
[L_rear_hand02]
26 102.726799 -1.568258 5.773216 71.484581 71.816628 158.486160 102.900848
27 102.726799 -1.568258 5.773216 71.484581 71.816628 158.486160 102.900848
[L_rear_hand03]
26 104.552910 9.721220 -10.420293 -177.714203 -24.565960 -106.089035 105.519653
27 104.552910 9.721220 -10.420293 -177.714203 -24.565960 -106.089035 105.519653
